<?xml version="1.0" standalone="no"?>
<!DOCTYPE svg PUBLIC "-//W3C//DTD SVG 20010904//EN"
 "http://www.w3.org/TR/2001/REC-SVG-20010904/DTD/svg10.dtd">
<svg version="1.0" xmlns="http://www.w3.org/2000/svg"
 width="1022.000000pt" height="1280.000000pt" viewBox="0 0 1022.000000 1280.000000"
 preserveAspectRatio="xMidYMid meet">
<metadata>
Created by potrace 1.15, written by Peter Selinger 2001-2017
</metadata>
<g transform="translate(0.000000,1280.000000) scale(0.100000,-0.100000)"
fill="#000000" stroke="none">
<path d="M8775 12791 c-181 -16 -267 -69 -550 -341 -55 -53 -117 -109 -139
-125 -35 -27 -39 -28 -51 -12 -15 20 -105 23 -187 6 -64 -14 -118 -62 -118
-105 0 -26 -8 -32 -60 -57 -97 -45 -132 -118 -107 -219 5 -20 15 -27 43 -33
32 -5 35 -9 29 -28 -15 -43 -17 -131 -3 -149 26 -34 153 -41 221 -13 17 7 18
6 6 -14 -8 -12 -22 -24 -33 -27 -28 -9 -83 -49 -116 -84 -25 -26 -36 -31 -59
-27 -23 5 -30 2 -39 -19 -14 -30 -30 -31 -34 -1 -3 21 -5 20 -24 -11 -20 -31
-21 -31 -37 -14 -27 30 -20 55 28 105 34 36 52 47 75 47 36 0 40 17 6 26 -78
19 -186 -124 -143 -189 14 -22 13 -25 -18 -50 -18 -14 -48 -48 -65 -74 -30
-44 -31 -49 -19 -85 10 -32 10 -56 -6 -151 -19 -118 -18 -123 20 -227 14 -37
16 -66 11 -165 -6 -106 -10 -127 -37 -181 -42 -83 -56 -175 -42 -260 19 -110
28 -91 25 50 -4 130 -3 135 22 173 29 43 51 135 61 253 5 59 2 92 -14 157 -24
94 -26 148 -6 183 19 33 18 37 -5 43 -19 5 -19 8 -6 51 11 36 12 53 3 77 -10
26 -9 36 9 67 13 21 32 39 48 43 14 4 39 19 56 32 16 14 44 28 62 32 18 4 41
9 51 11 14 5 17 -2 17 -39 0 -51 15 -69 79 -92 30 -10 48 -12 61 -5 13 7 21 7
25 0 3 -5 14 -10 24 -10 22 0 122 52 169 87 32 24 34 24 67 9 75 -36 193 -10
263 57 34 33 38 47 22 78 -13 24 -32 16 -102 -43 -27 -21 -53 -36 -58 -33 -6
4 -17 2 -25 -5 -13 -11 -19 -9 -73 26 -9 6 51 105 75 124 27 21 28 22 8 36
-20 15 -19 16 14 46 30 27 32 32 22 55 -10 21 -9 28 6 39 10 7 21 14 26 14 4
0 12 10 18 23 8 18 4 34 -20 82 -23 45 -32 55 -37 42 -3 -10 -4 -27 -1 -39 7
-25 -22 -96 -46 -116 -9 -7 -28 -12 -44 -10 -25 3 -28 7 -28 38 0 32 -2 35
-27 32 -26 -3 -28 0 -28 31 0 35 25 66 65 82 13 5 16 9 7 12 -7 3 -19 18 -27
34 -20 38 -37 37 -84 -6 -46 -42 -51 -43 -51 -10 0 28 -9 32 -29 13 -10 -11
-11 -8 -6 13 4 17 1 30 -10 39 -27 22 8 50 64 50 40 1 44 2 29 14 -10 7 -18
20 -18 29 0 26 -20 30 -61 12 -38 -17 -41 -17 -95 1 -63 21 -69 42 -21 78 22
16 42 21 85 20 87 -2 116 -5 128 -15 20 -16 129 67 284 215 80 78 165 154 188
170 130 90 392 126 655 91 93 -12 120 -20 184 -55 96 -52 177 -114 246 -191
53 -58 68 -84 146 -249 30 -64 60 -178 61 -232 0 -14 32 -154 70 -310 46 -186
80 -352 99 -483 40 -271 70 -364 146 -455 74 -88 79 -106 83 -295 5 -202 2
-211 -97 -285 -87 -65 -186 -94 -326 -94 -126 0 -164 16 -262 112 -39 39 -93
83 -120 98 -26 15 -63 38 -81 51 l-33 24 -19 -23 c-18 -23 -18 -23 2 -45 12
-12 51 -37 87 -55 36 -18 70 -39 74 -46 5 -7 23 -22 40 -33 28 -17 29 -19 10
-19 -12 0 -69 9 -125 21 -57 11 -152 23 -213 26 -87 4 -121 10 -162 29 -79 37
-178 46 -355 35 -101 -6 -172 -6 -208 1 -30 5 -77 11 -105 12 -27 1 -58 3 -67
4 -9 1 -56 37 -103 80 -86 76 -145 163 -145 211 0 10 -23 73 -52 138 -47 107
-52 125 -52 194 -1 71 1 80 32 123 18 25 32 54 30 64 -3 12 -11 4 -30 -28 -31
-52 -62 -172 -53 -202 4 -11 1 -26 -9 -36 -13 -16 -13 -37 4 -212 26 -272 31
-310 43 -317 6 -4 7 22 3 73 -6 76 -5 78 9 42 7 -21 23 -81 35 -135 12 -54 24
-100 27 -103 5 -5 -2 120 -12 200 -4 33 -4 32 10 -9 8 -24 28 -105 45 -180 17
-74 33 -137 35 -140 16 -15 16 19 0 88 -10 43 -16 83 -14 89 8 23 49 -55 65
-123 26 -107 23 -100 37 -81 12 16 15 14 32 -18 11 -20 25 -34 32 -32 17 7 25
-22 17 -70 -4 -27 -1 -50 8 -65 12 -22 13 -20 18 41 l5 65 18 -40 c14 -30 17
-55 14 -98 -4 -43 -2 -57 7 -54 6 3 25 -6 41 -19 22 -18 32 -37 42 -85 18 -89
32 -95 26 -12 -4 63 -3 67 11 49 9 -11 16 -26 16 -34 0 -8 15 -87 34 -176 19
-89 47 -236 61 -328 l27 -166 -21 -99 c-12 -54 -21 -103 -21 -108 1 -22 38 63
50 115 7 30 20 71 28 90 11 28 16 31 23 18 6 -11 0 -42 -16 -93 -23 -71 -26
-115 -6 -115 4 0 13 25 20 55 15 67 53 183 93 290 28 72 32 77 40 55 13 -33
-2 -91 -64 -253 -27 -71 -47 -134 -45 -140 2 -6 25 41 51 104 27 62 55 128 64
144 l16 30 7 -40 c4 -22 8 -99 8 -171 1 -205 -36 -385 -119 -580 -58 -136
-114 -226 -172 -279 -27 -24 -48 -50 -47 -57 1 -7 -9 -38 -23 -68 -23 -52 -52
-149 -46 -155 2 -1 18 0 36 2 28 5 37 13 52 47 14 31 19 36 19 19 2 -46 18
-21 55 85 21 59 52 136 69 172 25 53 31 61 35 42 2 -13 -4 -42 -13 -65 -12
-29 -18 -80 -20 -165 -2 -68 -7 -138 -10 -155 -12 -60 -27 -97 -36 -92 -5 4
-9 4 -9 2 0 -2 -5 -29 -11 -58 -6 -30 -14 -146 -18 -259 -6 -178 -10 -211 -28
-250 -21 -44 -21 -44 -23 -15 -3 52 1 116 16 250 19 178 19 195 -6 195 -16 0
-18 -4 -10 -24 9 -26 2 -134 -10 -151 -4 -5 -11 -44 -15 -85 -4 -41 -11 -81
-15 -90 -29 -57 -81 -228 -90 -295 -6 -43 -14 -82 -19 -85 -5 -3 -12 -21 -15
-40 -11 -55 -17 -70 -25 -70 -4 0 -6 14 -3 30 3 18 0 30 -7 30 -6 0 -11 -7
-11 -17 0 -15 -1 -15 -18 0 -22 20 -52 22 -52 5 0 -9 -3 -9 -9 1 -10 15 -18
-16 -23 -89 -4 -51 -40 -52 -117 -6 -32 20 -66 36 -74 36 -22 0 -71 71 -97
138 -12 32 -30 73 -40 93 -11 21 -22 57 -26 80 -4 24 -14 58 -22 74 -20 39
-52 162 -52 200 0 17 -8 53 -19 80 -10 28 -22 75 -26 105 -9 67 -21 100 -36
100 -16 0 0 -81 41 -215 11 -33 24 -95 30 -137 6 -43 23 -110 36 -150 14 -40
29 -89 33 -108 8 -38 59 -146 90 -188 10 -15 22 -37 25 -49 4 -13 12 -23 17
-23 5 0 24 -14 42 -31 37 -36 61 -47 137 -61 62 -11 195 -51 253 -75 37 -16
97 -74 97 -93 0 -5 28 -28 63 -50 59 -37 87 -71 87 -105 0 -18 -17 -20 -23 -2
-2 6 -8 9 -12 5 -4 -4 11 -36 33 -70 74 -114 99 -196 72 -238 -11 -17 -43 49
-81 168 -12 39 -27 72 -32 72 -5 0 -7 -6 -4 -14 3 -7 20 -65 37 -127 l32 -114
-39 -75 c-36 -71 -40 -75 -73 -76 -29 0 -40 -7 -67 -43 -23 -29 -33 -54 -33
-77 0 -19 2 -34 5 -34 17 0 66 33 91 62 34 38 77 68 98 68 26 0 83 58 90 91 3
17 1 39 -5 50 -7 15 -6 21 6 25 11 5 15 21 15 59 0 61 -14 105 -48 158 -19 28
-25 52 -26 96 -2 75 -20 101 -98 145 -44 25 -73 50 -96 84 -27 41 -42 52 -87
68 -59 19 -73 38 -52 63 8 9 22 39 32 66 14 40 127 267 141 284 2 2 42 -32 88
-77 47 -45 155 -134 242 -198 92 -69 165 -131 176 -151 11 -18 24 -33 29 -33
5 0 9 -47 9 -105 0 -65 5 -113 12 -125 10 -15 9 -26 -5 -55 -28 -60 -18 -87
25 -64 28 15 143 130 150 150 8 24 38 -9 66 -74 31 -71 49 -71 72 0 9 29 23
60 31 69 13 15 15 13 25 -22 11 -41 35 -54 59 -34 10 9 15 33 15 76 0 57 2 64
20 64 14 0 25 -12 36 -40 18 -44 40 -52 53 -17 9 25 0 56 -29 97 -11 16 -20
36 -20 45 0 45 -145 245 -178 245 -8 0 -29 15 -47 33 -27 27 -34 43 -40 95 -4
34 -16 78 -26 99 -11 21 -24 67 -30 103 -14 87 -59 222 -102 301 -20 36 -47
112 -62 174 -36 142 -53 181 -108 242 -24 28 -59 76 -77 107 -35 62 -91 122
-122 132 -11 3 -17 12 -14 19 2 7 10 107 16 222 6 114 16 226 22 248 6 22 12
60 13 85 0 25 9 106 19 180 20 143 19 167 -9 490 -17 203 -19 448 -5 605 17
184 40 317 62 353 11 18 17 36 13 40 -12 12 -45 -38 -61 -94 -8 -29 -20 -56
-25 -59 -16 -11 -9 40 11 80 12 22 22 55 24 73 1 18 10 40 19 49 15 15 20 15
69 -10 75 -37 126 -46 263 -47 67 0 151 -7 190 -16 39 -8 95 -19 126 -24 31
-5 79 -18 107 -29 112 -44 169 -53 261 -41 141 18 231 53 302 117 73 66 81 85
87 197 13 228 11 245 -33 332 -22 43 -53 89 -68 103 -59 50 -90 148 -122 381
-30 219 -87 479 -140 645 -14 44 -30 121 -35 170 -19 165 -57 280 -138 419
-94 159 -258 274 -462 326 -97 24 -288 33 -435 21z"/>
<path d="M8435 11854 c-12 -12 -14 -27 -9 -60 10 -70 0 -92 -47 -104 -31 -9
-49 -8 -71 1 -26 11 -29 16 -24 43 3 17 22 46 42 64 19 19 33 36 30 39 -3 3
-23 -3 -45 -13 -37 -17 -43 -25 -61 -82 -18 -58 -18 -66 -5 -92 11 -20 25 -31
49 -36 49 -9 136 19 170 55 23 24 33 28 47 21 10 -6 38 -10 63 -10 47 0 66
-14 47 -33 -8 -8 -4 -18 16 -39 24 -25 25 -29 11 -41 -9 -6 -18 -25 -20 -42
-5 -45 -42 -54 -102 -26 -41 20 -45 26 -40 49 3 15 21 41 40 58 39 36 42 44
13 44 -11 0 -36 -17 -55 -37 -31 -34 -34 -43 -32 -88 3 -49 4 -51 58 -82 54
-33 122 -44 135 -23 3 6 -1 10 -9 10 -23 0 -20 18 5 25 20 7 26 18 68 125 24
61 28 52 -41 101 -18 13 -20 19 -11 30 16 20 46 128 39 145 -7 19 -66 19 -66
0 0 -8 7 -16 15 -20 27 -10 16 -26 -17 -26 l-33 0 25 -20 c21 -17 23 -21 10
-30 -15 -10 -37 -14 -55 -10 -5 1 -23 2 -40 2 -17 1 -36 9 -43 20 -7 10 -20
18 -28 18 -19 0 -18 39 3 62 14 16 14 18 0 18 -8 0 -23 -7 -32 -16z"/>
<path d="M8878 11489 c-49 -11 -158 -66 -158 -79 0 -15 16 -12 30 5 14 16 129
55 164 55 13 0 0 -11 -38 -30 -70 -36 -86 -48 -86 -66 0 -9 22 -2 66 23 80 44
140 50 176 17 13 -12 46 -29 74 -38 59 -19 81 -39 94 -87 10 -33 5 -69 -8 -69
-4 0 -17 23 -29 51 -19 44 -29 53 -80 76 -75 35 -173 42 -223 16 -44 -23 -50
-53 -18 -96 37 -49 42 -68 18 -74 -24 -7 -25 -4 1 -47 22 -38 56 -50 120 -44
26 2 34 8 34 23 0 18 9 21 70 26 39 3 72 4 74 2 2 -1 -12 -18 -30 -36 -67 -67
-256 -111 -314 -73 -28 18 -45 70 -45 137 0 33 -6 54 -21 70 -18 21 -20 21
-14 4 4 -11 10 -54 12 -95 5 -63 9 -80 32 -104 40 -44 73 -54 139 -44 113 17
191 46 239 91 l46 42 -5 -68 c-6 -97 14 -80 29 24 22 159 13 287 -17 239 -6
-9 -11 -7 -19 9 -7 12 -37 34 -69 49 -63 31 -78 52 -36 52 40 0 20 15 -45 34
-59 17 -105 19 -163 5z"/>
<path d="M8750 11290 c18 -26 40 -40 40 -25 0 20 -27 55 -42 55 -19 0 -18 -1
2 -30z"/>
<path d="M9030 10985 c-67 -36 -117 -43 -164 -25 -14 5 -26 6 -26 2 0 -4 25
-16 55 -27 l56 -18 76 40 c42 22 79 45 81 51 6 18 -7 14 -78 -23z"/>
<path d="M10046 10431 c-20 -32 -36 -64 -36 -70 0 -6 17 -11 38 -11 30 0 45 7
69 33 17 17 36 42 42 55 10 19 9 23 -6 28 -10 3 -28 10 -41 15 -13 5 -25 9
-27 9 -2 0 -20 -26 -39 -59z"/>
<path d="M9731 10401 c-22 -14 -5 -57 33 -80 39 -25 55 -26 82 -7 18 14 18 16
-21 55 -38 40 -66 49 -94 32z"/>
<path d="M7340 10085 c0 -33 -42 -138 -83 -207 -47 -80 -198 -240 -267 -283
-25 -15 -60 -41 -78 -56 -18 -16 -45 -32 -60 -35 -15 -4 -40 -17 -57 -29 -16
-13 -64 -35 -105 -49 -41 -15 -96 -39 -121 -55 -25 -15 -67 -30 -93 -33 -62
-7 -130 -50 -184 -118 -45 -56 -53 -60 -129 -80 -38 -9 -46 -17 -75 -72 -32
-60 -86 -105 -128 -108 -23 -2 -90 -88 -90 -116 0 -32 18 -31 26 1 8 32 84 92
134 105 40 11 91 72 104 123 10 43 100 68 108 30 2 -12 17 7 41 53 48 91 78
119 152 143 74 23 86 15 57 -38 -26 -45 -28 -61 -7 -61 8 0 26 23 40 51 15 28
44 70 66 94 31 34 49 44 84 50 100 14 347 174 480 309 64 65 143 191 168 266
18 54 31 130 23 130 -3 0 -6 -7 -6 -15z"/>
<path d="M7365 9660 c-13 -20 -20 -278 -13 -413 6 -97 15 -156 29 -195 31 -87
48 -179 55 -298 4 -79 15 -137 37 -209 31 -104 55 -149 44 -85 l-6 35 19 -35
c10 -19 29 -62 41 -95 12 -33 28 -67 35 -75 8 -9 31 -55 54 -103 30 -65 43
-85 55 -81 8 4 15 1 15 -5 0 -5 9 -35 21 -66 26 -70 65 -118 89 -110 13 4 21
-4 34 -35 9 -23 20 -39 25 -36 5 3 -7 47 -26 97 -19 50 -32 93 -30 96 15 15
77 -109 121 -244 38 -114 59 -113 30 1 -5 21 -3 26 14 26 23 0 37 -15 46 -52
4 -18 13 -28 24 -28 10 0 26 -6 36 -13 18 -13 18 -18 1 -130 -9 -64 -13 -122
-10 -128 4 -6 -5 -33 -19 -60 -18 -31 -34 -87 -46 -156 -10 -60 -26 -127 -35
-151 -16 -39 -16 -45 -3 -59 14 -13 13 -20 -4 -65 -11 -31 -18 -69 -16 -97 l3
-46 27 29 c32 33 73 114 63 124 -3 4 -20 -9 -36 -28 -33 -40 -35 -30 -14 45
10 34 25 59 40 69 18 12 25 26 25 48 0 18 11 48 26 69 15 22 28 60 34 95 4 33
13 70 19 84 19 45 91 339 97 398 3 31 7 67 10 79 3 19 -7 26 -87 59 -97 40
-225 128 -318 217 -30 29 -99 108 -154 177 -135 168 -183 274 -252 546 -18 72
-40 145 -48 161 -9 16 -23 67 -33 114 -14 71 -16 118 -11 312 4 125 5 227 2
227 -2 0 -7 -5 -10 -10z"/>
<path d="M6645 9330 c-11 -4 -30 -19 -42 -32 -42 -45 -132 -181 -126 -191 8
-14 42 24 87 99 48 79 80 106 130 107 41 1 47 12 14 21 -29 7 -38 7 -63 -4z"/>
<path d="M6233 9010 c-31 -19 -59 -57 -50 -67 3 -2 23 12 45 31 22 20 42 36
46 36 4 0 20 -10 37 -22 29 -22 31 -22 60 -5 17 9 37 17 46 17 8 0 13 6 11 13
-6 16 -47 22 -61 8 -14 -14 -54 -14 -62 -1 -10 15 -37 12 -72 -10z"/>
<path d="M6065 8848 c-48 -42 -135 -151 -135 -169 0 -19 16 -8 40 28 44 64
119 141 146 147 14 4 24 12 22 18 -8 23 -26 18 -73 -24z"/>
<path d="M5744 8801 c-50 -23 -107 -79 -134 -131 -11 -21 -39 -52 -62 -69 -24
-16 -63 -50 -88 -76 -62 -65 -161 -137 -320 -232 -161 -97 -212 -140 -291
-246 -84 -113 -113 -167 -157 -298 -21 -64 -56 -143 -77 -175 -23 -35 -160
-180 -341 -359 -382 -379 -475 -502 -604 -794 -112 -255 -230 -705 -230 -879
0 -126 -57 -297 -148 -446 -46 -75 -47 -81 -30 -137 10 -36 9 -41 -12 -64 -13
-14 -29 -25 -35 -25 -20 0 -44 -34 -70 -100 -14 -35 -34 -72 -45 -82 -21 -19
-26 -74 -11 -113 5 -13 0 -30 -16 -53 -12 -19 -23 -49 -23 -67 0 -17 -3 -35
-7 -38 -9 -10 -3 -158 8 -178 5 -11 5 -20 0 -23 -5 -4 -21 -38 -36 -76 -31
-80 -28 -109 13 -147 26 -24 26 -26 8 -37 -54 -32 -74 -58 -90 -115 -28 -102
-80 -202 -155 -300 -39 -52 -71 -103 -71 -113 0 -20 -102 -204 -153 -276 -53
-73 -169 -165 -290 -227 -61 -32 -125 -68 -142 -81 -45 -33 -154 -85 -310
-149 -174 -71 -249 -112 -322 -176 -77 -68 -192 -134 -463 -268 -391 -192
-606 -370 -792 -652 -83 -126 -194 -329 -220 -401 -19 -54 -22 -82 -21 -198 0
-112 5 -152 27 -235 31 -118 51 -160 154 -314 127 -191 301 -348 426 -387 30
-9 125 -19 231 -25 99 -5 207 -15 240 -21 82 -16 352 -21 417 -8 29 5 94 17
145 25 50 8 147 34 215 58 68 24 148 50 177 57 29 7 93 30 141 51 49 21 155
59 237 84 81 26 222 71 313 101 362 119 649 172 722 133 16 -8 19 -8 13 1 -17
28 -70 37 -204 34 -74 -2 -159 -8 -190 -14 -112 -19 -367 -50 -421 -50 -30 0
-100 -11 -155 -25 -55 -14 -123 -25 -150 -25 -28 0 -80 -9 -118 -19 -125 -36
-264 -53 -437 -53 -231 -1 -365 21 -650 104 -19 5 -42 15 -50 22 -8 6 -32 20
-53 31 -83 41 -173 143 -242 272 -23 44 -27 60 -22 98 8 53 35 110 88 182 22
29 39 56 39 60 0 14 124 133 139 133 7 0 29 19 49 41 46 51 185 159 206 159 8
0 19 6 23 14 9 15 157 107 238 149 93 46 241 107 501 203 283 104 448 152 564
165 97 10 218 45 354 103 59 25 127 49 150 52 69 10 158 35 197 55 20 10 54
23 76 28 95 24 582 215 627 247 11 8 29 14 38 14 10 0 59 20 108 45 71 35 100
45 140 45 27 0 50 5 50 10 0 18 60 47 112 54 50 7 330 140 463 220 33 20 63
36 68 36 12 0 8 -82 -8 -142 -8 -31 -46 -124 -84 -207 -39 -82 -73 -162 -77
-178 -11 -46 -79 -187 -152 -316 -172 -305 -192 -354 -192 -478 0 -88 16 -190
66 -409 19 -85 48 -234 64 -330 22 -126 35 -178 46 -187 10 -7 49 -24 88 -39
91 -34 197 -92 311 -168 94 -62 167 -96 210 -96 14 0 47 -11 73 -24 26 -13 85
-36 132 -51 116 -38 176 -70 232 -121 47 -44 88 -57 88 -29 0 35 82 -7 105
-55 16 -33 18 -34 31 -15 19 26 18 40 -10 122 -27 80 -23 100 20 87 16 -4 36
-8 44 -9 33 -1 59 -27 89 -90 40 -84 57 -82 54 8 -1 47 -8 82 -27 123 -29 63
-29 64 -18 64 20 0 96 -78 124 -127 53 -95 80 -39 30 62 -21 41 -33 82 -38
130 l-6 70 35 -38 c19 -20 40 -37 46 -37 18 0 13 101 -8 145 -26 57 -145 191
-189 214 -20 11 -42 28 -49 39 -7 12 -28 23 -50 27 -21 3 -54 15 -73 25 -19
10 -45 23 -57 29 -12 6 -27 20 -34 33 -6 13 -19 32 -29 43 -9 11 -36 72 -60
135 -51 140 -119 289 -171 380 -22 37 -39 72 -39 79 0 23 39 86 73 119 35 34
85 128 127 237 24 64 120 258 143 288 12 17 17 9 51 -80 44 -114 135 -298 196
-398 59 -96 200 -436 200 -483 0 -9 7 -30 15 -46 9 -16 18 -45 20 -64 8 -62
46 -87 160 -103 42 -6 109 -23 148 -39 40 -16 104 -34 142 -41 47 -8 78 -20
96 -36 14 -12 32 -23 41 -23 8 0 21 -7 29 -16 21 -26 67 -45 147 -60 42 -8 92
-19 110 -25 29 -10 36 -8 57 11 45 42 111 4 198 -115 46 -65 67 -85 82 -83 33
5 46 47 35 108 -6 29 -10 70 -10 90 0 34 3 38 30 43 43 9 57 1 132 -70 36 -34
71 -63 77 -63 12 0 41 52 41 75 0 9 -16 31 -36 49 -24 22 -35 39 -31 50 9 22
55 31 89 18 15 -7 41 -17 58 -24 22 -9 33 -9 41 -1 15 15 3 63 -15 63 -28 0
-53 48 -60 111 -3 34 -15 76 -26 95 -46 73 -136 129 -227 140 -26 3 -58 10
-70 16 -26 13 -38 6 -30 -17 5 -10 20 -15 52 -15 65 0 162 -46 207 -99 33 -39
78 -135 78 -167 0 -8 -9 -14 -20 -14 -24 0 -26 -13 -5 -30 24 -20 9 -28 -51
-26 l-57 1 -26 65 c-49 119 -143 235 -224 274 -59 28 -157 46 -157 27 0 -6 9
-11 20 -11 10 0 45 -10 77 -22 119 -44 280 -246 271 -339 -3 -27 -9 -33 -53
-50 -60 -23 -75 -19 -75 18 0 41 -52 124 -103 166 -24 20 -50 51 -58 69 l-14
33 -5 -40 -5 -40 -27 47 c-16 26 -28 56 -28 67 0 23 -7 26 -29 12 -8 -6 -12
-19 -9 -35 4 -18 0 -29 -11 -35 -26 -15 12 -47 85 -71 78 -26 115 -56 143
-113 20 -42 28 -118 15 -151 -10 -26 -49 -18 -91 16 -21 18 -40 37 -40 41 -1
4 -13 27 -26 50 -14 23 -28 57 -32 74 -8 41 -30 58 -23 19 4 -22 0 -30 -23
-41 -26 -14 -29 -14 -39 4 -5 11 -10 32 -10 47 0 39 -18 18 -22 -26 -2 -27 -7
-35 -23 -35 -12 0 -21 8 -23 20 -6 29 -23 46 -62 63 -45 18 -160 94 -185 122
-16 18 -18 27 -9 71 11 53 3 73 -17 40 -7 -10 -19 -17 -26 -14 -8 3 -13 2 -12
-3 7 -39 -21 -45 -61 -14 -14 11 -33 20 -44 20 -14 0 -17 5 -12 25 5 18 2 25
-8 25 -16 0 -21 13 -31 75 -10 67 -25 77 -25 19 0 -37 -6 -59 -20 -75 -17 -21
-21 -22 -30 -9 -22 32 -23 66 -3 122 20 57 18 69 -5 46 -17 -17 -21 -9 -28 70
-7 69 -11 77 -43 72 -8 -1 -17 4 -22 11 -6 10 -12 9 -28 -5 -21 -19 -21 -19
-21 41 0 62 8 79 78 170 32 43 19 42 -30 -3 -22 -19 -42 -33 -44 -31 -3 3 4
31 16 63 25 71 25 71 0 49 -11 -10 -34 -55 -51 -101 -17 -46 -35 -84 -38 -84
-4 0 -12 12 -17 28 -12 31 8 80 57 143 16 20 29 43 29 50 0 16 -47 -36 -99
-111 -43 -61 -68 -86 -78 -77 -3 4 -8 28 -11 55 -6 63 17 109 104 204 78 87
109 128 96 128 -6 0 -40 -33 -76 -72 -64 -71 -66 -72 -66 -42 0 22 13 45 48
85 110 125 126 164 25 62 -38 -40 -68 -63 -70 -55 -8 23 -22 12 -25 -20 l-4
-33 -13 27 c-19 38 -1 78 61 129 49 41 74 76 64 86 -3 3 -13 0 -22 -8 -14 -11
-18 -11 -29 5 -21 27 -17 101 6 122 10 9 19 22 19 28 0 6 -5 5 -12 -2 -29 -29
-36 -12 -43 99 -7 107 -7 111 16 136 26 26 58 47 65 41 2 -3 12 -46 23 -97 21
-102 36 -134 28 -56 -23 201 -29 312 -18 352 11 39 59 93 82 93 7 0 8 -38 3
-105 -5 -78 -3 -109 6 -120 23 -27 29 -5 23 75 -3 45 0 134 7 202 l13 123 39
34 c21 19 38 41 38 49 0 13 -2 13 -17 0 -36 -30 -43 -30 -43 0 0 18 13 46 35
73 19 24 35 49 35 56 0 7 7 10 15 7 9 -4 15 -20 16 -43 0 -29 2 -32 9 -16 5
11 9 36 9 55 1 45 29 152 43 165 7 7 8 3 3 -12 -5 -18 -3 -22 8 -17 8 3 20 26
27 52 16 59 47 122 60 122 6 0 10 9 10 20 0 23 32 43 54 34 12 -5 16 0 16 19
0 15 10 33 25 45 14 11 25 24 25 28 0 4 -5 3 -12 -4 -19 -19 -38 -14 -38 8 0
27 27 92 43 102 9 6 9 10 0 16 -13 8 -9 14 69 130 l17 25 15 -37 c27 -64 37
-44 30 55 l-7 91 64 59 c58 55 65 59 76 43 13 -18 17 -13 13 19 -1 10 6 30 15
44 12 17 14 28 6 32 -14 9 12 235 32 282 15 34 73 97 82 88 2 -3 1 -57 -4
-120 -5 -63 -7 -116 -5 -118 16 -17 26 35 29 148 4 127 5 133 32 166 15 19 64
99 108 179 88 161 108 177 119 100 11 -84 6 -287 -9 -384 -25 -150 -105 -472
-127 -508 -11 -18 -28 -37 -39 -42 -12 -7 -19 -21 -19 -39 0 -19 -16 -49 -47
-90 -127 -162 -172 -234 -187 -293 -8 -33 10 -38 20 -5 9 30 64 115 138 214
55 75 62 81 71 62 6 -15 4 -41 -9 -88 -10 -36 -23 -91 -28 -121 -25 -146 -62
-300 -108 -446 -27 -87 -66 -220 -86 -294 -20 -74 -43 -154 -51 -177 -22 -63
-97 -173 -207 -303 -54 -63 -117 -145 -142 -181 l-44 -67 0 -94 c0 -92 1 -96
43 -174 24 -43 55 -96 69 -116 24 -35 162 -348 203 -463 10 -27 21 -54 25 -58
10 -12 -5 75 -17 98 -6 11 -18 53 -28 93 -9 40 -29 89 -42 110 -14 20 -32 54
-39 76 -8 22 -43 92 -79 156 -76 138 -98 193 -82 209 7 7 7 26 -3 65 -7 29
-10 65 -7 78 11 41 103 175 224 325 l115 143 64 197 c133 411 191 635 224 863
23 160 49 258 88 335 14 27 33 93 43 145 10 52 34 170 53 261 55 264 68 525
29 570 -12 15 -7 30 51 130 78 135 276 551 276 580 0 11 8 36 19 57 10 20 16
44 13 52 -3 9 6 6 21 -9 28 -26 53 -112 67 -236 5 -38 13 -71 19 -73 20 -7 12
-34 -29 -94 -43 -64 -49 -88 -25 -88 20 0 91 36 100 50 4 6 13 2 24 -11 16
-20 19 -21 48 -5 34 17 68 56 78 87 4 10 13 19 20 19 14 0 23 11 75 90 35 54
37 78 9 156 -11 32 -24 79 -27 104 -6 40 -10 45 -35 48 l-27 3 22 -33 c16 -24
27 -62 36 -130 14 -107 11 -122 -44 -187 -23 -28 -54 -44 -39 -21 3 5 2 18 -4
28 -5 10 -6 24 0 33 18 34 -31 231 -64 254 -44 31 -53 3 -11 -36 46 -43 57
-76 50 -146 -8 -75 -20 -110 -48 -140 -16 -17 -24 -20 -35 -12 -7 6 -13 17
-13 25 0 7 -9 16 -20 19 -15 5 -20 15 -20 44 0 21 -13 85 -30 142 -16 57 -30
107 -30 112 0 4 15 7 33 7 l32 0 -27 23 c-14 12 -34 38 -43 57 -10 19 -24 43
-33 53 -18 21 -40 23 -22 2 10 -12 10 -15 -1 -15 -7 0 -48 36 -91 79 -76 78
-78 79 -84 53 -3 -15 -6 -30 -7 -34 -1 -4 -33 17 -70 47 -40 31 -74 52 -83 48
-9 -3 -46 28 -103 87 -56 59 -93 90 -101 85 -8 -5 1 -20 29 -49 34 -35 43 -51
47 -93 8 -64 -5 -73 -54 -37 l-36 28 37 9 c45 11 48 22 7 31 -20 4 -34 14 -40
31 -5 14 -14 25 -20 25 -5 0 -10 15 -10 33 -1 29 -2 30 -14 15 -7 -10 -18 -18
-23 -18 -16 0 -80 74 -102 119 -26 51 -39 58 -47 26 -7 -30 -14 -31 -44 -7
-25 20 -28 47 -16 136 5 41 5 56 -3 52 -6 -4 -11 -17 -11 -29 0 -31 -15 -51
-30 -42 -10 6 -11 35 -7 117 4 70 3 107 -3 103 -6 -3 -10 -17 -10 -31 0 -13
-5 -24 -12 -24 -6 0 -9 3 -5 6 3 4 -1 20 -9 36 -8 16 -12 33 -9 38 3 5 1 11
-5 15 -6 4 -8 34 -6 78 5 74 9 78 49 62 28 -12 19 13 -10 27 -16 8 -27 21 -27
31 1 9 -4 17 -11 17 -8 0 -16 20 -20 53 -4 28 -14 69 -23 91 -22 55 -35 24
-20 -47 7 -31 9 -60 5 -64 -15 -14 -42 15 -45 48 -5 56 -10 65 -27 43 -20 -27
-18 -91 5 -159 11 -32 20 -64 20 -72 0 -24 -16 -13 -39 28 -27 47 -36 47 -20
0 8 -22 8 -36 1 -43 -6 -6 0 -35 19 -85 31 -79 32 -103 4 -59 -10 14 -22 26
-27 26 -12 0 56 -125 85 -157 14 -16 21 -41 25 -93 4 -64 7 -73 29 -81 13 -5
32 -23 41 -40 9 -17 27 -44 40 -59 26 -33 27 -40 7 -40 -12 0 -13 -3 -3 -19
13 -21 78 -61 98 -61 7 0 43 -20 80 -45 38 -25 134 -74 214 -109 80 -35 160
-73 178 -84 l33 -22 -27 0 c-15 0 -51 9 -80 19 -29 11 -98 34 -153 51 -180 57
-237 89 -342 192 -109 106 -127 135 -187 284 -24 60 -54 126 -66 147 -75 126
-66 447 17 598 53 98 127 138 296 160 63 9 97 18 97 26 0 12 -8 12 -145 -9
-129 -19 -245 -99 -299 -206 -27 -54 -41 -166 -40 -317 1 -125 30 -217 143
-450 126 -262 183 -324 361 -400 135 -57 353 -132 410 -141 22 -4 40 -9 40
-13 0 -3 -16 -16 -35 -28 -23 -16 -33 -28 -28 -39 3 -8 1 -25 -5 -37 -6 -12
-22 -64 -36 -115 -15 -52 -33 -106 -41 -120 l-14 -27 6 33 c8 46 -11 40 -27
-8 -17 -53 -35 -68 -61 -52 -16 10 -21 10 -25 -3 -12 -30 4 -47 37 -40 24 5
30 4 27 -6 -3 -8 -17 -15 -31 -17 -34 -4 -35 -22 -1 -22 19 0 25 -4 22 -17 -2
-10 -11 -17 -21 -17 -9 1 -17 -2 -17 -7 0 -5 -19 -20 -41 -35 -28 -17 -38 -29
-31 -36 7 -7 17 -6 32 2 12 6 24 9 27 6 13 -13 -10 -57 -37 -71 -43 -22 -60
-19 -60 11 0 43 -17 18 -29 -44 -7 -36 -20 -67 -32 -78 -12 -11 -30 -36 -40
-56 -10 -20 -24 -40 -30 -43 -6 -4 -1 11 10 34 12 22 21 43 21 46 0 13 -29 3
-47 -17 -23 -25 -99 -203 -109 -255 -6 -32 -48 -83 -44 -53 4 27 0 38 -14 42
-12 3 -12 9 -1 41 9 25 9 39 2 44 -14 8 -31 -16 -83 -119 -37 -73 -46 -85 -64
-81 -26 7 -26 8 15 72 19 30 32 57 29 60 -4 3 -14 -5 -23 -19 -9 -13 -24 -33
-35 -43 -10 -11 -27 -40 -38 -66 -27 -61 -46 -81 -77 -81 -24 0 -23 2 24 50
27 27 46 52 43 55 -3 3 -33 -22 -67 -55 -34 -33 -66 -58 -71 -55 -6 4 -10 -5
-10 -19 0 -22 -23 -46 -44 -46 -3 0 -15 18 -26 40 -28 56 -43 50 -18 -7 20
-45 20 -47 2 -60 -30 -22 -47 -11 -76 50 -26 53 -46 74 -45 45 1 -38 -4 -68
-12 -68 -5 0 -24 34 -42 75 -19 41 -37 75 -41 75 -3 0 -9 -14 -12 -30 -3 -16
-9 -44 -12 -60 -7 -40 -18 -31 -34 27 -7 27 -19 55 -27 64 -7 8 -13 30 -13 49
0 28 -2 31 -15 20 -8 -7 -15 -25 -15 -41 0 -16 -4 -29 -10 -29 -5 0 -10 8 -10
17 0 9 -3 13 -7 9 -10 -10 -3 -99 9 -113 8 -10 5 -13 -12 -13 -23 0 -23 0 -17
118 5 104 4 114 -8 87 -8 -16 -17 -61 -20 -99 -6 -63 -8 -67 -23 -52 -12 11
-18 39 -20 91 -6 113 -28 96 -35 -25 l-3 -55 -17 37 c-22 48 -21 78 3 184 11
48 18 89 15 92 -13 13 -27 -20 -37 -87 -6 -39 -14 -71 -18 -71 -16 0 -30 55
-30 118 0 68 -11 105 -24 83 -4 -6 -8 -46 -8 -88 0 -69 -2 -75 -14 -59 -24 34
-27 85 -10 173 17 81 15 114 -3 84 -5 -8 -15 -56 -22 -107 -7 -52 -14 -94 -16
-94 -19 0 -32 42 -43 138 -14 116 -29 147 -31 65 l-2 -48 -8 50 c-5 28 -11 71
-14 98 -7 52 -22 63 -27 20 l-3 -28 -23 35 c-17 28 -22 50 -22 107 0 83 -6
104 -26 96 -11 -4 -13 -14 -9 -33 3 -16 2 -31 -4 -34 -20 -13 -39 41 -44 128
-4 49 -11 94 -17 100 -7 7 -10 3 -10 -11 0 -12 -4 -24 -9 -28 -16 -10 -22 32
-15 105 6 68 6 70 -19 79 -29 11 -47 59 -47 129 0 23 -4 42 -10 42 -6 0 -10
-32 -10 -77 0 -67 -2 -75 -14 -63 -11 11 -15 49 -18 147 -2 96 -6 133 -15 133
-32 0 -44 70 -43 248 1 89 -13 110 -25 36 -18 -119 -32 -82 -34 86 -1 63 -4
125 -7 138 -10 34 -29 20 -26 -19 1 -19 -4 -65 -12 -104 -15 -68 -15 -65 -13
161 2 183 -1 234 -12 247 -7 10 -17 17 -22 17 -12 0 -11 -240 2 -418 29 -403
108 -784 209 -1009 12 -26 37 -95 56 -153 19 -57 70 -172 113 -255 87 -167
123 -261 123 -319 -1 -22 6 -55 14 -74 8 -20 14 -49 12 -66 -1 -17 4 -41 10
-53 7 -12 12 -41 12 -65 1 -66 16 -118 44 -147 14 -15 26 -34 26 -43 0 -9 20
-47 45 -84 25 -36 45 -72 45 -79 0 -7 14 -29 30 -50 17 -21 30 -41 31 -44 5
-49 14 -68 47 -108 49 -59 72 -123 70 -188 -1 -27 0 -100 2 -162 4 -120 -6
-154 -53 -173 l-22 -9 22 0 c12 -1 25 4 28 9 23 37 29 -12 29 -225 -1 -108 -4
-129 -33 -215 -18 -52 -57 -150 -87 -218 -67 -153 -109 -262 -125 -327 -7 -27
-27 -72 -46 -99 -18 -26 -53 -89 -77 -140 -24 -50 -56 -106 -72 -125 -17 -20
-29 -47 -30 -65 0 -17 -38 -107 -82 -200 -45 -93 -82 -174 -82 -180 0 -29 -64
-140 -124 -213 -36 -45 -66 -91 -66 -101 0 -11 15 -42 33 -68 63 -92 163 -306
170 -361 3 -28 20 -79 37 -112 32 -65 162 -211 187 -211 8 0 29 -6 46 -14 18
-8 49 -20 70 -26 51 -16 188 -147 167 -160 -23 -15 -28 -13 -78 36 -65 63
-152 108 -152 79 0 -8 31 -30 69 -50 113 -57 169 -148 140 -229 -11 -29 -17
-34 -35 -30 -17 4 -22 2 -21 -13 3 -28 -38 -29 -67 0 -13 13 -31 49 -40 79
-12 41 -27 65 -60 96 -58 53 -135 92 -199 99 -68 7 -51 -10 25 -26 31 -7 74
-25 96 -40 51 -38 112 -122 119 -166 5 -34 5 -35 -27 -35 -43 0 -35 -21 16
-38 66 -22 125 -96 123 -154 0 -14 -3 -18 -6 -8 -11 30 -49 62 -105 90 -54 27
-56 27 -61 8 -8 -27 -20 -17 -56 45 -65 113 -151 171 -247 165 -58 -4 -65 -19
-10 -25 39 -4 99 -30 149 -65 32 -23 107 -121 107 -141 0 -24 -21 -35 -51 -27
-25 7 -29 6 -29 -11 0 -14 7 -19 26 -19 31 0 84 -50 84 -79 0 -27 -4 -27 -77
13 -35 19 -63 31 -63 27 0 -3 -4 -12 -9 -20 -8 -12 -15 -9 -42 13 -67 57 -324
170 -408 180 -30 4 -88 22 -128 41 -72 33 -202 115 -223 140 -18 22 87 191
106 172 11 -10 11 -187 1 -187 -4 0 -5 -4 -2 -10 15 -24 53 -9 79 30 14 22 31
40 36 40 5 0 12 -17 16 -37 10 -55 21 -65 65 -58 22 4 40 2 44 -4 10 -18 34
-12 46 11 9 18 8 24 -6 34 -15 12 -15 13 4 23 21 12 24 8 33 -54 2 -13 11 -20
25 -20 12 0 25 -3 29 -7 21 -22 34 -6 34 42 0 50 -4 54 -42 51 -12 -2 -16 3
-12 12 3 8 -1 32 -9 54 -12 36 -12 42 4 61 9 12 24 22 33 22 36 0 13 19 -29
24 -25 3 -65 9 -90 12 -49 6 -50 6 -34 36 15 28 2 36 -17 10 -8 -12 -24 -22
-36 -22 -19 0 -20 4 -15 43 l6 42 -24 -27 -23 -26 -26 27 c-24 25 -25 29 -11
41 17 14 20 40 5 40 -5 0 -14 -8 -19 -17 -19 -34 -12 48 9 107 13 35 15 48 6
37 -7 -10 -24 -49 -36 -87 -15 -47 -26 -67 -35 -64 -22 9 -25 31 -9 69 8 19
10 35 5 35 -5 0 -12 -8 -15 -17 -5 -12 -9 -14 -18 -5 -8 8 -12 65 -13 177 l0
166 -24 -6 c-20 -5 -23 -3 -18 14 3 11 -1 22 -8 25 -7 2 -20 27 -30 55 -9 27
-23 55 -31 62 -18 15 -11 39 28 102 29 45 32 67 9 53 -18 -12 -101 -180 -101
-206 0 -14 -13 -41 -29 -60 -25 -30 -30 -33 -36 -18 -7 18 9 55 63 147 31 53
9 53 -25 0 -28 -43 -53 -72 -59 -66 -7 7 39 123 84 214 24 48 38 85 32 88 -6
3 -10 28 -10 55 0 54 18 81 50 73 17 -5 20 -1 20 27 0 20 10 47 26 68 24 31
25 33 5 23 -18 -10 -21 -9 -21 6 1 31 35 97 82 153 24 30 54 76 66 101 13 26
65 94 117 153 52 58 95 107 95 110 0 2 -10 2 -22 -1 -13 -3 -20 -2 -16 2 4 4
3 16 -3 26 -14 26 3 54 79 132 34 36 62 67 62 71 0 14 -39 -11 -82 -52 -26
-25 -50 -43 -53 -40 -9 9 95 156 134 189 65 54 71 62 77 110 4 27 13 54 20 60
16 13 19 39 4 39 -5 0 -22 -24 -36 -52 -26 -52 -78 -134 -108 -172 -20 -25
-29 -16 -17 17 9 23 7 28 -10 38 l-21 11 23 24 23 25 -22 6 c-29 7 -28 19 8
60 38 43 39 61 1 34 -35 -25 -51 -27 -51 -5 0 21 32 67 92 131 64 69 66 104 2
43 -38 -36 -46 -41 -41 -22 8 33 -18 28 -45 -10 l-23 -32 -11 39 -12 40 -1
-70 c-1 -70 -26 -135 -51 -135 -19 0 -10 39 10 45 25 8 28 55 4 55 -15 0 -16
9 -11 75 4 41 12 95 18 120 11 44 8 75 -9 75 -5 0 -14 -36 -21 -80 -8 -44 -17
-77 -22 -74 -5 3 -9 15 -9 27 0 13 -7 50 -16 82 -9 33 -16 89 -16 125 0 45 -3
57 -8 40 -12 -41 -30 -167 -30 -218 -1 -66 -13 -40 -47 101 -26 106 -28 121
-16 164 6 27 12 57 12 68 0 19 0 19 -13 2 -12 -16 -25 -68 -42 -172 -6 -38 -7
-39 -16 -15 -5 14 -21 70 -35 125 -25 100 -27 157 -7 254 5 25 4 32 -4 27 -7
-4 -12 -15 -12 -24 0 -9 -7 -30 -15 -46 -9 -17 -15 -57 -16 -100 0 -58 -2 -67
-10 -46 -18 44 -59 293 -60 365 -1 70 -1 70 -14 35 -22 -56 -16 -273 11 -440
10 -63 -13 -19 -54 105 -54 163 -65 222 -65 348 -1 59 -4 104 -9 99 -17 -17
-19 -131 -4 -249 9 -67 16 -141 15 -165 l0 -43 -15 45 c-50 157 -81 307 -90
437 -4 51 -10 93 -14 93 -13 0 -20 -29 -20 -83 0 -29 -4 -58 -8 -64 -11 -17
-52 142 -52 202 0 36 -3 46 -15 43 -12 -2 -16 -24 -20 -103 -2 -55 -8 -113
-13 -130 -9 -30 -9 -30 -31 30 -36 95 -38 300 -5 469 4 18 2 26 -4 22 -6 -3
-15 -39 -22 -79 -6 -39 -14 -81 -17 -92 -5 -18 -7 -18 -15 5 -21 55 -40 197
-34 255 6 66 -8 59 -20 -8 -10 -59 -28 -29 -27 45 0 55 8 109 29 208 4 16 2
21 -4 15 -13 -14 -48 -161 -63 -267 -7 -48 -16 -85 -20 -83 -4 3 -10 31 -13
62 -16 137 -18 144 -32 132 -8 -6 -14 -18 -14 -25 0 -34 -19 -9 -29 36 -11 52
-3 111 34 250 8 30 13 56 11 57 -8 8 -38 -52 -43 -85 -2 -20 -7 -44 -10 -52
-4 -8 -14 -53 -24 -99 -22 -102 -35 -120 -44 -60 -8 53 14 208 54 383 15 69
25 126 21 126 -9 0 -41 -116 -71 -258 -17 -78 -25 -100 -32 -87 -21 38 -11
128 26 236 38 109 44 139 28 139 -9 0 -32 -57 -48 -119 -4 -19 -15 -37 -22
-39 -12 -4 -13 8 -7 64 3 38 9 85 13 104 5 32 5 34 -11 21 -25 -21 -29 -8 -12
33 8 20 11 34 5 30 -6 -3 -22 -33 -36 -65 -14 -32 -30 -59 -34 -59 -5 0 -9 23
-9 50 0 28 -4 50 -10 50 -5 0 -10 -8 -11 -17 0 -15 -2 -15 -10 2 -8 16 -3 38
20 95 31 78 32 92 6 70 -24 -20 -30 -4 -18 43 16 57 8 59 -19 3 -12 -25 -26
-46 -30 -46 -16 0 -21 32 -10 68 13 40 12 44 -6 33 -7 -4 -20 -76 -32 -187
-13 -116 -28 -200 -42 -238 -20 -55 -21 -61 -6 -87 11 -19 15 -41 11 -70 -5
-33 -2 -44 12 -51 15 -9 16 -19 11 -69 -6 -51 -4 -63 16 -91 29 -41 38 -48 55
-41 10 4 13 14 8 32 -13 51 -4 121 16 121 7 0 10 -26 9 -72 -3 -100 -2 -105
16 -112 13 -5 15 1 12 32 -2 28 1 37 12 37 12 0 15 -14 16 -65 1 -86 1 -90 19
-90 8 0 15 6 15 13 0 8 4 7 10 -3 5 -8 10 -38 10 -65 0 -56 25 -104 43 -86 7
7 6 16 -6 29 -21 22 -21 42 -4 67 21 28 28 6 37 -105 4 -54 11 -103 14 -109 4
-6 18 -11 30 -11 22 0 24 -5 30 -80 7 -92 13 -110 32 -110 8 0 14 1 14 3 0 1
-7 24 -15 51 -18 59 -19 99 -4 94 11 -4 81 -153 100 -213 5 -16 9 -44 9 -61 0
-33 30 -70 37 -46 3 6 15 12 28 12 19 0 23 -7 29 -50 4 -28 12 -62 18 -75 12
-27 33 -33 41 -12 2 6 23 -27 46 -75 30 -62 53 -96 82 -118 22 -18 51 -54 64
-80 13 -26 31 -50 38 -53 8 -3 25 -35 37 -71 24 -72 34 -84 56 -65 8 6 16 10
18 8 13 -14 46 -87 46 -100 0 -21 26 -43 40 -34 15 9 12 35 -3 35 -14 0 -37
40 -37 65 0 11 6 11 30 -3 16 -9 30 -22 30 -29 0 -6 12 -43 26 -81 22 -61 28
-68 48 -65 27 6 39 -8 55 -65 8 -29 20 -46 35 -52 24 -9 66 -92 66 -130 0 -31
30 -38 48 -12 8 12 17 22 21 22 3 0 6 -35 6 -79 -1 -59 -5 -85 -20 -107 -10
-16 -20 -39 -21 -51 -1 -12 -14 -41 -27 -65 -21 -37 -24 -54 -22 -118 1 -50
-2 -81 -11 -95 -18 -25 -18 -52 0 -62 20 -12 8 -34 -78 -152 -53 -72 -76 -112
-76 -132 0 -16 5 -29 10 -29 6 0 10 15 10 33 1 23 14 49 50 94 28 34 59 67 70
73 l20 11 -20 -52 c-10 -29 -32 -66 -48 -83 -16 -17 -36 -44 -43 -61 -9 -18
-22 -30 -34 -30 -13 0 -29 -19 -52 -65 -18 -36 -37 -72 -43 -80 -5 -8 -29 -64
-54 -124 -25 -59 -75 -160 -110 -222 -43 -76 -60 -114 -50 -114 8 0 20 11 26
25 11 25 31 36 23 12 -2 -6 -18 -56 -35 -110 -31 -95 -33 -132 -5 -93 8 10 16
24 18 30 9 25 20 -7 25 -72 3 -49 -2 -98 -18 -171 -12 -56 -19 -108 -16 -116
7 -19 35 -9 58 19 l16 21 7 -25 c3 -14 -4 -61 -16 -105 -30 -106 -36 -195 -15
-195 8 0 18 5 21 10 14 22 23 8 14 -22 -11 -40 -11 -38 1 -38 5 0 22 24 36 53
15 28 29 47 31 40 2 -7 0 -20 -5 -30 -5 -10 -7 -46 -4 -81 7 -100 47 -106 103
-15 11 18 25 33 29 33 10 0 7 -166 -3 -176 -3 -3 -48 12 -99 34 -51 21 -103
42 -115 46 -25 8 -43 53 -43 106 0 53 -25 192 -66 360 -19 80 -46 191 -60 246
-51 212 -23 321 166 648 32 56 66 122 76 146 9 25 56 131 104 235 102 220 136
321 150 443 13 112 13 109 -8 114 -26 7 -126 145 -147 203 -15 41 -42 73 -146
175 -127 124 -164 175 -210 298 -21 56 -104 164 -234 307 -120 132 -184 215
-247 321 -10 16 -41 59 -71 96 -85 109 -145 217 -268 493 -123 277 -121 269
-144 501 -7 66 8 192 30 255 12 33 12 39 0 39 -17 0 -32 -45 -45 -140 -14 -97
4 -350 31 -432 11 -32 67 -155 126 -275 60 -120 116 -239 126 -263 9 -25 52
-90 96 -145 43 -55 90 -124 105 -153 15 -29 47 -82 71 -118 25 -36 45 -76 45
-90 0 -19 5 -24 24 -24 14 0 28 -5 31 -10 3 -5 -1 -10 -10 -10 -13 0 -14 -3
-3 -22 7 -13 11 -27 10 -31 -1 -5 11 -14 28 -20 36 -14 40 -37 5 -37 -32 0
-32 -23 0 -44 16 -10 24 -24 22 -38 -1 -17 7 -27 37 -41 36 -17 37 -19 22 -36
-16 -17 -15 -20 19 -39 48 -29 44 -42 -15 -42 -70 0 -62 -32 11 -46 84 -16 92
-44 13 -44 -40 0 -55 -3 -52 -12 5 -13 27 -22 81 -33 50 -10 31 -27 -23 -20
-69 10 -65 -10 5 -25 52 -11 55 -13 55 -41 0 -27 -2 -29 -42 -29 -44 0 -43
-16 2 -22 17 -2 26 -10 28 -26 5 -33 -15 -52 -56 -52 -40 0 -34 -16 8 -22 41
-5 31 -33 -13 -36 -32 -3 -36 -6 -26 -18 6 -8 20 -14 30 -14 12 0 19 -7 19
-19 0 -32 -28 -51 -73 -51 -23 0 -49 -5 -57 -10 -12 -8 -9 -10 12 -10 57 0 77
-28 38 -52 -11 -7 -20 -18 -20 -25 0 -9 -16 -13 -47 -13 -35 0 -44 -3 -33 -10
8 -5 38 -10 66 -10 55 0 65 -5 58 -25 -4 -9 -42 -15 -130 -20 -152 -9 -167
-28 -19 -23 58 2 105 0 105 -3 0 -3 -6 -13 -13 -22 -10 -15 -30 -18 -117 -18
-80 -1 -99 -3 -80 -11 14 -5 58 -8 98 -6 39 2 72 1 72 -2 -1 -25 -25 -30 -178
-32 -137 -3 -160 -5 -152 -17 6 -10 35 -16 97 -19 48 -2 91 -7 96 -11 4 -4 -2
-16 -14 -27 -18 -16 -40 -19 -166 -23 -155 -4 -179 -17 -50 -27 80 -7 95 -20
41 -37 -16 -5 -98 -9 -181 -10 -84 -1 -153 -5 -153 -9 0 -16 59 -21 184 -15
73 3 138 2 146 -3 26 -16 -5 -33 -70 -38 -56 -4 -60 -3 -54 14 6 16 2 14 -20
-6 -23 -21 -40 -25 -114 -30 -61 -4 -80 -8 -64 -13 25 -9 27 -18 10 -35 -8 -8
-55 -12 -142 -13 -83 0 -124 -4 -111 -9 11 -5 38 -9 60 -10 l40 -2 -35 -9
c-19 -5 -86 -10 -147 -11 -62 -2 -113 -6 -113 -10 0 -12 232 -13 275 -1 16 4
15 0 -10 -26 -34 -37 -69 -49 -90 -31 -11 9 -22 9 -47 1 -20 -7 -61 -9 -103
-6 -63 5 -68 5 -46 -8 l23 -14 -32 -7 c-18 -3 -61 -6 -96 -6 -96 0 -77 -16 28
-25 76 -6 89 -9 73 -18 -12 -7 -73 -11 -157 -11 -135 0 -172 -8 -83 -19 98
-10 61 -41 -39 -32 -82 8 -82 -8 0 -25 31 -7 53 -14 50 -18 -4 -3 -43 -5 -89
-4 -57 2 -78 -1 -67 -8 8 -5 25 -10 38 -10 12 0 22 -4 22 -8 0 -20 -29 -32
-79 -32 -54 0 -62 -14 -13 -22 12 -1 21 -7 20 -13 -2 -6 -34 -9 -76 -8 -73 3
-90 -9 -32 -22 17 -4 28 -11 24 -16 -7 -12 -61 -10 -109 5 -35 11 -47 10 -101
-10 -33 -12 -134 -39 -225 -59 -204 -45 -199 -43 -199 -61 0 -8 -2 -14 -4 -14
-1 0 -50 -12 -107 -26 -107 -27 -179 -57 -179 -74 0 -13 2 -13 59 10 87 34
505 130 569 130 15 0 53 9 86 19 53 16 106 18 106 2 0 -3 -28 -13 -63 -23
-169 -45 -251 -72 -359 -118 -64 -28 -143 -56 -175 -61 -32 -6 -89 -17 -127
-25 -38 -8 -71 -12 -74 -9 -8 7 -7 8 108 50 134 48 195 65 246 65 22 0 49 7
60 15 24 18 14 18 -86 -1 -174 -33 -461 -134 -511 -180 -14 -14 -52 -34 -84
-47 -55 -21 -87 -48 -73 -62 3 -3 21 5 41 18 39 26 141 65 260 97 90 25 115
21 35 -5 -29 -10 -68 -26 -87 -36 -18 -11 -88 -38 -155 -60 -131 -44 -366
-151 -366 -168 0 -24 22 -17 111 34 91 53 185 92 195 82 3 -3 -88 -53 -203
-111 -194 -99 -343 -193 -343 -216 0 -16 26 -12 41 6 29 35 205 142 216 131 8
-8 -80 -74 -183 -136 -97 -58 -184 -130 -184 -151 0 -18 14 -11 73 35 31 25
57 41 57 35 0 -32 -38 -74 -110 -121 -69 -45 -110 -87 -110 -115 0 -4 25 17
56 46 30 29 57 50 60 48 2 -3 -3 -21 -11 -41 -32 -78 -11 -180 61 -279 73
-103 136 -169 188 -195 28 -14 58 -32 68 -40 20 -18 162 -57 298 -83 133 -24
259 -38 430 -45 128 -6 141 -5 251 24 63 16 185 39 270 51 84 11 181 27 214
35 33 8 89 15 125 15 36 0 112 7 170 15 212 28 203 28 125 1 -38 -13 -140 -49
-225 -79 -85 -30 -191 -62 -235 -72 -44 -10 -127 -38 -185 -62 -129 -56 -332
-124 -465 -157 -106 -27 -267 -57 -273 -51 -10 10 98 47 133 46 26 -1 62 9
102 28 38 18 102 37 160 47 94 15 217 56 229 75 8 14 -6 11 -86 -16 -40 -14
-91 -25 -112 -25 -21 0 -64 -9 -95 -20 -68 -24 -63 -23 -63 -5 0 22 -12 19
-98 -24 -42 -21 -88 -42 -100 -46 -21 -6 -23 -4 -17 14 7 22 6 22 -32 5 -48
-21 -261 -94 -273 -94 -31 0 2 19 83 49 52 18 105 42 118 53 28 23 34 25 -120
-34 -57 -21 -117 -46 -132 -53 -61 -32 -122 -37 -236 -21 -59 9 -160 18 -223
20 -182 6 -299 59 -439 196 -76 75 -197 238 -258 347 -58 104 -99 310 -91 461
3 73 8 86 80 232 123 251 233 412 375 552 94 93 238 202 290 219 20 6 48 23
62 36 25 23 48 35 281 146 63 31 198 110 299 177 219 145 287 184 406 234 50
21 115 54 147 72 31 19 109 59 175 90 108 51 229 119 326 183 22 14 58 50 81
81 55 71 136 205 136 224 0 8 22 38 50 65 49 49 64 79 35 67 -24 -9 -17 8 16
40 17 16 53 75 80 130 30 63 61 112 81 130 20 17 28 29 21 31 -24 8 -15 71 14
103 24 27 35 31 81 32 44 1 52 4 52 20 0 10 -7 21 -15 24 -10 4 -15 20 -15 47
0 39 0 40 -20 22 -19 -17 -20 -16 -37 20 l-18 37 35 64 c26 49 38 63 51 59 20
-7 41 24 45 63 2 13 10 33 18 45 85 118 86 119 86 163 0 55 -16 65 -23 14 -3
-23 -24 -70 -52 -112 -25 -40 -49 -85 -52 -100 -5 -24 -34 -43 -47 -30 -3 3
-6 25 -6 48 0 34 5 47 27 64 l27 21 -27 25 c-22 20 -25 28 -17 50 19 48 31 65
56 74 22 9 23 12 12 37 -7 15 -18 34 -25 41 -18 18 -18 18 22 74 20 27 39 65
43 86 7 32 12 37 40 40 25 3 32 8 32 25 0 12 16 42 36 67 34 42 34 44 14 52
-47 17 -42 45 35 193 40 77 75 151 78 165 3 14 15 98 27 188 86 671 303 1172
656 1512 43 41 178 177 301 302 246 251 265 280 318 453 46 153 84 215 219
362 49 54 154 127 373 260 65 40 152 102 193 138 41 36 85 70 98 77 14 7 22
20 22 38 0 35 75 128 109 137 14 3 50 1 81 -5 70 -15 83 -15 78 -1 -3 10 -48
30 -98 45 -8 2 -33 -4 -56 -15z"/>
<path d="M8495 6170 c-3 -5 1 -10 10 -10 9 0 13 5 10 10 -3 6 -8 10 -10 10 -2
0 -7 -4 -10 -10z"/>
<path d="M3243 4708 c-24 -27 -53 -81 -53 -101 0 -23 39 -52 51 -40 8 8 5 14
-9 22 -20 11 -20 13 -6 54 11 32 25 49 52 65 35 20 35 22 11 22 -14 0 -35 -10
-46 -22z"/>
<path d="M7190 1510 c0 -28 -23 -35 -54 -15 -22 15 -26 15 -26 2 0 -8 8 -25
19 -38 l18 -23 74 17 c134 29 217 31 306 7 128 -36 180 -59 186 -80 3 -11 14
-20 24 -20 11 0 25 -11 31 -25 7 -15 30 -33 55 -44 59 -26 116 -77 138 -126
24 -52 24 -65 -2 -65 -13 0 -19 -5 -15 -12 2 -7 10 -30 17 -50 7 -23 19 -38
28 -38 9 0 36 -14 61 -30 38 -26 46 -28 49 -13 2 10 -16 35 -43 61 -28 26 -46
53 -46 66 0 61 -33 122 -109 200 -95 97 -156 138 -251 166 -41 12 -88 30 -105
39 -49 28 -71 30 -178 15 -108 -15 -136 -13 -161 12 -15 14 -16 14 -16 -6z"/>
</g>
</svg>
